<svg xmlns="http://www.w3.org/2000/svg" style="overflow: visible;" data-svgdocument="" id="_3tPmdtZQ0LGlljQGEkT-3" class="fl-svgdocument" x="0" y="0" overflow="hidden" data-bbox="14.354767777219664 137.609927571129 485.17419802789914 236.78013093487834" viewBox="14.35 137.61 480.94 236.78"><g id="_WTrHMt3eZfxcQKrYJirRK" transform="matrix(2.0968801975250244, 0, 0, 2.0968801975250244, -86.29547882080078, -280.80133056640625)" data-uid="o_f3hd89l1h_4"><path id="_1MYZsbAYvxe5D-50H3pho" fill="#000000" transform="matrix(1.2602784633636475, 0, 0, 1.2602784633636475, 27.5196533203125, 192.79656982421875)" data-type="polygon" d="M82.1 74L75 81.1L75 81.1L82.1 74L74 65.9L74 65.9Z" data-uid="o_f3hd89l1h_5"/><path id="_oL3QJlwkbW1Nmdh3qAlDC" fill="#000000" transform="matrix(1.2602784633636475, 0, 0, 1.2602784633636475, 27.457019805908203, 193.17498779296875)" data-type="rect" data-x="64.5" data-y="51.5" data-width="0" data-height="9.8" d="M64.5 51.5H64.5 V61.3 H64.5 Z" data-uid="o_f3hd89l1h_6"/><path id="_sK1htog-8Op55rgRI5hDg" d="M61.1 52.9L61.1 52.9L61.1 52.9l-4.9 4.9c2.5 1.2 4.3 3.8 4.3 6.9c0 4.2-3.4 7.6-7.6 7.6c-3 0-5.6-1.8-6.9-4.3l-5.9 5.9  L40 74l21 21l8.1-8.1h0c-3.2 0-5.9-2.6-5.9-5.9c0-3.3 2.6-5.9 5.9-5.9c3.2 0 5.9 2.6 5.9 5.9l7.1-7.1L74 65.9l0 0l-0.6-0.6  c0.1 0 0.3 0 0.4 0c3.2 0 5.9-2.6 5.9-5.9c0-1.5-0.6-2.8-1.5-3.9c-1-0.9-2.4-1.5-3.9-1.5c-3.2 0-5.9 2.6-5.9 5.9c0 0.1 0 0.3 0 0.4  L68 59.9l0 0L61.1 52.9z" fill="rgba(217, 122, 67, 1)" transform="matrix(1.2602784633636475, 0, 0, 1.2602784633636475, 27.519929885864258, 192.733642578125)" data-uid="o_f3hd89l1h_7"/><path id="_OMWHsyuaoclMfPE9tvM7V" d="M46.5 49.5c-4.2 0-7.6-3.4-7.6-7.6c0-3 1.7-5.6 4.2-6.8l-5.9-5.9h0l-21 21l22.2 22.2l9.5-9.5c-0.3 0.6-0.4 1.3-0.4 2  c0 2.9 2.4 5.3 5.3 5.3c2.9 0 5.3-2.4 5.3-5.3c0-2.9-2.4-5.3-5.3-5.3c-0.7 0-1.4 0.1-2 0.4l8.6-8.6l-6-6  C52.1 47.7 49.5 49.5 46.5 49.5z" fill="rgba(242, 183, 73, 1)" transform="matrix(1.2602784633636475, 0, 0, 1.2602784633636475, 27.583486557006836, 192.79708862304688)" data-uid="o_f3hd89l1h_8"/><path id="_jAk8zpl6O80_21e1JT4hk" d="M83.3 27.4l-8.7-8.7c0.1 0 0.3 0 0.4 0c3.2 0 5.9-2.6 5.9-5.9C80.9 9.6 78.3 7 75 7c-3.2 0-5.9 2.6-5.9 5.9  c0 0.1 0 0.3 0 0.4l-8.1-8.1l-21 21L39.3 27l-0.4 0.4l9.5 9.5c-0.6-0.2-1.2-0.3-1.8-0.3c-2.9 0-5.3 2.4-5.3 5.3  c0 2.9 2.4 5.3 5.3 5.3c2.9 0 5.3-2.4 5.3-5.3c0-0.5-0.1-0.9-0.2-1.4c0-0.2-0.1-0.3-0.1-0.5l0.5 0.5l9.2 9.2l0.4-0.4l0.8-0.8  l6.8-6.8c0 0 0 0 0 0c-3.2 0-5.9-2.6-5.9-5.9c0-3.3 2.6-5.9 5.9-5.9c3.2 0 5.9 2.6 5.9 5.9c0 0 0 0 0 0L83.3 27.4z" fill="#4b83a6" transform="matrix(1.2602784633636475, 0, 0, 1.2602784633636475, 27.709266662597656, 192.9864501953125)" data-uid="o_f3hd89l1h_9"/><path id="_GDSYpBtYoW2GJpRZoPCot" fill="#000000" transform="matrix(1.2602784633636475, 0, 0, 1.2602784633636475, 27.456932067871094, 192.670654296875)" data-type="rect" data-x="61.1" data-y="52.9" data-width="0" data-height="0" d="M61.1 52.9H61.1 V52.9 H61.1 Z" data-uid="o_f3hd89l1h_10"/><path id="_NldltLD5fZQlQrgFsakaC" fill="#000000" transform="matrix(1.2602784633636475, 0, 0, 1.2602784633636475, 27.456932067871094, 192.670654296875)" data-type="rect" data-x="61.1" data-y="52.9" data-width="0" data-height="0" d="M61.1 52.9H61.1 V52.9 H61.1 Z" data-uid="o_f3hd89l1h_11"/><path id="_TbX_b0jxU8J0Cb3YWVDy6" d="M51.6 40.5h0.3L51.5 40C51.5 40.1 51.5 40.3 51.6 40.5z" fill="#000000" transform="matrix(1.2602784633636475, 0, 0, 1.2602784633636475, 27.70876693725586, 192.98587036132812)" data-uid="o_f3hd89l1h_12"/></g><path text="aguri" text-anchor="start" font-size="100" letter-spacing="0" side="left" offset="0" dx="0" dy="0" space="preserve" href="" font-family="Squada One" font-scale="contain" transform="matrix(1.6168856620788574, 0, 0, 1.6168856620788574, 195.68303251471127, 296.90720601700923)" x="0" y="0" fill="#4b83a6" data-fl-textpath="" id="_yYbvZbHzuwhQ1kcQirPc1" font-weight="400" font-style="normal" data-uid="o_f3hd89l1h_13" d="M 29.3-45.2L 29.3-48.8L 40.6-48.8L 40.6 0L 29.3 0L 29.3-3.6Q 26.2 1  19 1L 19 1L 16.9 1Q 4.5 1  4.5-12.2L 4.5-12.2L 4.5-36.6Q 4.5-49.8  16.9-49.8L 16.9-49.8L 19-49.8Q 26.2-49.8  29.3-45.2L 29.3-45.2ZM 27.2-10.6L 27.2-10.6L 27.2-38.2Q 27.2-39  26.65-39.6Q 26.1-40.2  25.3-40.2L 25.3-40.2L 19.8-40.2Q 19-40.2  18.45-39.6Q 17.9-39  17.9-38.2L 17.9-38.2L 17.9-10.6Q 17.9-9.8  18.45-9.2Q 19-8.6  19.8-8.6L 19.8-8.6L 25.3-8.6Q 26.1-8.6  26.65-9.2Q 27.2-9.8  27.2-10.6ZM 74.50000000000001-48.8L 85.80000000000001-48.8L 85.80000000000001 3.7Q 85.80000000000001 16.9  73.4 16.9L 73.4 16.9L 63.400000000000006 16.9Q 51.00000000000001 16.9  51.00000000000001 3.7L 51.00000000000001 3.7L 51.00000000000001 2.1L 63.10000000000001 2.1L 63.10000000000001 5.3Q 63.10000000000001 6.1  63.650000000000006 6.7Q 64.20000000000002 7.3  65.00000000000001 7.3L 65.00000000000001 7.3L 70.50000000000001 7.3Q 71.30000000000001 7.3  71.85000000000001 6.7Q 72.4 6.1  72.4 5.3L 72.4 5.3L 72.4-4.7Q 69.30000000000001-2.3  64.20000000000002-2.3L 64.20000000000002-2.3L 62.10000000000001-2.3Q 49.70000000000001-2.3  49.70000000000001-15.5L 49.70000000000001-15.5L 49.70000000000001-36.6Q 49.70000000000001-49.8  62.10000000000001-49.8L 62.10000000000001-49.8L 64.20000000000002-49.8Q 71.4-49.8  74.50000000000001-45.2L 74.50000000000001-45.2L 74.50000000000001-48.8ZM 72.4-13.9L 72.4-13.9L 72.4-38.2Q 72.4-39  71.85000000000001-39.6Q 71.30000000000001-40.2  70.50000000000001-40.2L 70.50000000000001-40.2L 65.00000000000001-40.2Q 64.20000000000002-40.2  63.650000000000006-39.6Q 63.10000000000001-39  63.10000000000001-38.2L 63.10000000000001-38.2L 63.10000000000001-13.9Q 63.10000000000001-13.1  63.650000000000006-12.5Q 64.20000000000002-11.9  65.00000000000001-11.9L 65.00000000000001-11.9L 70.50000000000001-11.9Q 71.30000000000001-11.9  71.85000000000001-12.5Q 72.4-13.1  72.4-13.9ZM 117.60000000000001-10.6L 117.60000000000001-48.8L 131-48.8L 131 0L 118.80000000000001 0L 118.80000000000001-2.5Q 115.7 1  109.4 1L 109.4 1L 107.30000000000001 1Q 94.9 1  94.9-12.2L 94.9-12.2L 94.9-48.8L 108.30000000000001-48.8L 108.30000000000001-10.6Q 108.30000000000001-9.8  108.85000000000001-9.2Q 109.4-8.6  110.2-8.6L 110.2-8.6L 115.7-8.6Q 116.5-8.6  117.05000000000001-9.2Q 117.60000000000001-9.8  117.60000000000001-10.6L 117.60000000000001-10.6ZM 160.90000000000003-49.8L 160.90000000000003-49.8L 163.50000000000003-49.8L 163.50000000000003-36.8L 156.90000000000003-36.8Q 153.50000000000003-36.8  153.50000000000003-33.3L 153.50000000000003-33.3L 153.50000000000003 0L 140.10000000000002 0L 140.10000000000002-48.8L 152.3-48.8L 152.3-44.1Q 155.20000000000002-49.8  160.90000000000003-49.8ZM 183.15000000000003-54.9Q 181.00000000000003-52.8  178.00000000000003-52.8Q 175.00000000000003-52.8  172.80000000000004-54.95Q 170.60000000000002-57.1  170.60000000000002-60.15Q 170.60000000000002-63.2  172.80000000000004-65.35Q 175.00000000000003-67.5  178.00000000000003-67.5Q 181.00000000000003-67.5  183.15000000000003-65.35Q 185.30000000000004-63.2  185.30000000000004-60.1Q 185.30000000000004-57  183.15000000000003-54.9ZM 184.70000000000002 0L 171.30000000000004 0L 171.30000000000004-48.8L 184.70000000000002-48.8L 184.70000000000002 0Z"/></svg>