<svg xmlns="http://www.w3.org/2000/svg" width="512" height="512" style="overflow: visible;" viewBox="0 0 512 512" data-svgdocument="" id="_3tPmdtZQ0LGlljQGEkT-3" class="fl-svgdocument" x="0" y="0" overflow="hidden" data-bbox="14.354767777219664 137.609927571129 485.17419802789914 236.78013093487834"><g id="_WTrHMt3eZfxcQKrYJirRK" transform="matrix(4.079624464635536, 0, 0, 4.079624464635536, -179.3412819978006, -788.3838494027534)" data-uid="o_f3hd89l1h_4"><path id="_1MYZsbAYvxe5D-50H3pho" fill="#000000" transform="matrix(1.2602784633636475, 0, 0, 1.2602784633636475, 27.5196533203125, 192.79656982421875)" data-type="polygon" d="M82.1 74L75 81.1L75 81.1L82.1 74L74 65.9L74 65.9Z" data-uid="o_f3hd89l1h_5"></path><path id="_oL3QJlwkbW1Nmdh3qAlDC" fill="#000000" transform="matrix(1.2602784633636475, 0, 0, 1.2602784633636475, 27.457019805908203, 193.17498779296875)" data-type="rect" data-x="64.5" data-y="51.5" data-width="0" data-height="9.8" d="M64.5 51.5H64.5 V61.3 H64.5 Z" data-uid="o_f3hd89l1h_6"></path><path id="_sK1htog-8Op55rgRI5hDg" d="M61.1 52.9L61.1 52.9L61.1 52.9l-4.9 4.9c2.5 1.2 4.3 3.8 4.3 6.9c0 4.2-3.4 7.6-7.6 7.6c-3 0-5.6-1.8-6.9-4.3l-5.9 5.9  L40 74l21 21l8.1-8.1h0c-3.2 0-5.9-2.6-5.9-5.9c0-3.3 2.6-5.9 5.9-5.9c3.2 0 5.9 2.6 5.9 5.9l7.1-7.1L74 65.9l0 0l-0.6-0.6  c0.1 0 0.3 0 0.4 0c3.2 0 5.9-2.6 5.9-5.9c0-1.5-0.6-2.8-1.5-3.9c-1-0.9-2.4-1.5-3.9-1.5c-3.2 0-5.9 2.6-5.9 5.9c0 0.1 0 0.3 0 0.4  L68 59.9l0 0L61.1 52.9z" fill="rgba(217, 122, 67, 1)" transform="matrix(1.2602784633636475, 0, 0, 1.2602784633636475, 27.519929885864258, 192.733642578125)" data-uid="o_f3hd89l1h_7"></path><path id="_OMWHsyuaoclMfPE9tvM7V" d="M46.5 49.5c-4.2 0-7.6-3.4-7.6-7.6c0-3 1.7-5.6 4.2-6.8l-5.9-5.9h0l-21 21l22.2 22.2l9.5-9.5c-0.3 0.6-0.4 1.3-0.4 2  c0 2.9 2.4 5.3 5.3 5.3c2.9 0 5.3-2.4 5.3-5.3c0-2.9-2.4-5.3-5.3-5.3c-0.7 0-1.4 0.1-2 0.4l8.6-8.6l-6-6  C52.1 47.7 49.5 49.5 46.5 49.5z" fill="rgba(242, 183, 73, 1)" transform="matrix(1.2602784633636475, 0, 0, 1.2602784633636475, 27.583486557006836, 192.79708862304688)" data-uid="o_f3hd89l1h_8"></path><path id="_jAk8zpl6O80_21e1JT4hk" d="M83.3 27.4l-8.7-8.7c0.1 0 0.3 0 0.4 0c3.2 0 5.9-2.6 5.9-5.9C80.9 9.6 78.3 7 75 7c-3.2 0-5.9 2.6-5.9 5.9  c0 0.1 0 0.3 0 0.4l-8.1-8.1l-21 21L39.3 27l-0.4 0.4l9.5 9.5c-0.6-0.2-1.2-0.3-1.8-0.3c-2.9 0-5.3 2.4-5.3 5.3  c0 2.9 2.4 5.3 5.3 5.3c2.9 0 5.3-2.4 5.3-5.3c0-0.5-0.1-0.9-0.2-1.4c0-0.2-0.1-0.3-0.1-0.5l0.5 0.5l9.2 9.2l0.4-0.4l0.8-0.8  l6.8-6.8c0 0 0 0 0 0c-3.2 0-5.9-2.6-5.9-5.9c0-3.3 2.6-5.9 5.9-5.9c3.2 0 5.9 2.6 5.9 5.9c0 0 0 0 0 0L83.3 27.4z" fill="#4b83a6" transform="matrix(1.2602784633636475, 0, 0, 1.2602784633636475, 27.709266662597656, 192.9864501953125)" data-uid="o_f3hd89l1h_9"></path><path id="_GDSYpBtYoW2GJpRZoPCot" fill="#000000" transform="matrix(1.2602784633636475, 0, 0, 1.2602784633636475, 27.456932067871094, 192.670654296875)" data-type="rect" data-x="61.1" data-y="52.9" data-width="0" data-height="0" d="M61.1 52.9H61.1 V52.9 H61.1 Z" data-uid="o_f3hd89l1h_10"></path><path id="_NldltLD5fZQlQrgFsakaC" fill="#000000" transform="matrix(1.2602784633636475, 0, 0, 1.2602784633636475, 27.456932067871094, 192.670654296875)" data-type="rect" data-x="61.1" data-y="52.9" data-width="0" data-height="0" d="M61.1 52.9H61.1 V52.9 H61.1 Z" data-uid="o_f3hd89l1h_11"></path><path id="_TbX_b0jxU8J0Cb3YWVDy6" d="M51.6 40.5h0.3L51.5 40C51.5 40.1 51.5 40.3 51.6 40.5z" fill="#000000" transform="matrix(1.2602784633636475, 0, 0, 1.2602784633636475, 27.70876693725586, 192.98587036132812)" data-uid="o_f3hd89l1h_12"></path></g><path text="A" text-anchor="start" font-size="100" letter-spacing="0" side="left" offset="0" dx="0" dy="0" space="preserve" href="" font-family="Squada One" font-scale="contain" transform="matrix(2.5243334013941903, 0, 0, 2.5243334013941903, 349.3643243804928, 338.9243483839721)" x="0" y="0" fill="#4b83a6" data-fl-textpath="" id="_yYbvZbHzuwhQ1kcQirPc1" font-weight="400" font-style="normal" data-uid="o_f3hd89l1h_13" d="M 17.4-65.7L 30.7-65.7Q 43.1-65.7  43.1-52.5L 43.1-52.5L 43.1 0L 29.1 0L 29.1-21.7L 19-21.7L 19 0L 5 0L 5-52.5Q 5-65.7  17.4-65.7L 17.4-65.7ZM 19-54.2L 19-32.5L 29.1-32.5L 29.1-54.2Q 29.1-55  28.55-55.6Q 28-56.2  27.2-56.2L 27.2-56.2L 20.9-56.2Q 20.1-56.2  19.55-55.6Q 19-55  19-54.2L 19-54.2Z"></path></svg>