<svg xmlns="http://www.w3.org/2000/svg" version="1.1" xlink="http://www.w3.org/1999/xlink" xmlns:svgjs="http://svgjs.com/svgjs" width="300" height="64.02356948215933"><defs id="SvgjsDefs3867"/><g id="SvgjsG3868" transform="scale(0.6827748344011239)" opacity="1"><g id="SvgjsG3869" class="JTpVtXL5A" transform="translate(-13.438235297344407, -5.209425995249041) scale(1.0418851990498081)" stroke="#000000" stroke-width="1.9195972855972863px" light-content="false" non-strokable="false" fill="#f2b749"><path d="M25 17.6v-4.3l-12.1 4.3zm28.8 34.6l33.3-31-57.9 23.1zm-25.2-5.9L60.5 95l-7.3-40.8zm16.9-32.7L36.9 5l-9.8 7.3v30.5L49.4 34l-3.9-20.4zM36 20.3c-2.8 0-5-2.3-5-5 0-2.8 2.3-5 5-5s5 2.3 5 5c.1 2.7-2.2 5-5 5z"/></g><g id="SvgjsG3870" class="text" transform="translate(266.05349543215567, 75.9562613079668) scale(1)" stroke="#000000" stroke-width="2px" light-content="false" fill="#4b83a6"><path d="M-169.68 0L-158.99 0L-158.99 -23.92L-154.4 -23.92L-139.66 0L-126.76 0L-144.5 -28.91L-126.76 -57.97L-139.66 -57.97L-154.4 -33.74L-159.07 -33.74L-159.07 -57.97L-169.68 -57.97Z M-114.08 0L-102.2 0L-98.01 -12.83L-79 -12.83L-74.88 0L-63.08 0L-81.93 -57.97L-94.52 -57.97ZM-95.08 -22.65L-88.11 -43.4L-81.61 -22.65Z M-49.3 0L-24.67 0C-21.24 0 -18.22 -0.69 -15.6 -2.06C-12.99 -3.43 -10.89 -5.41 -9.31 -8C-7.72 -10.59 -6.53 -13.61 -5.74 -17.07C-4.95 -20.53 -4.55 -24.42 -4.55 -28.75C-4.55 -48.23 -11.26 -57.97 -24.67 -57.97L-49.3 -57.97ZM-38.21 -9.9L-38.21 -48.15L-25.54 -48.15C-24.27 -48.15 -23.15 -47.98 -22.18 -47.64C-21.2 -47.29 -20.29 -46.69 -19.44 -45.82C-18.6 -44.94 -17.91 -43.78 -17.38 -42.33C-16.86 -40.88 -16.43 -39.03 -16.12 -36.79C-15.8 -34.54 -15.64 -31.89 -15.64 -28.83C-15.64 -16.21 -18.94 -9.9 -25.54 -9.9Z M8.99 0L20.87 0L25.07 -12.83L44.07 -12.83L48.19 0L59.99 0L41.14 -57.97L28.55 -57.97ZM28 -22.65L34.97 -43.4L41.46 -22.65Z M73.77 -11.25C73.77 -3.75 77.79 0 85.81 0L109.65 0L109.65 -10.22L89.77 -10.22C88.93 -10.22 88.32 -10.24 87.95 -10.3C87.58 -10.35 87.09 -10.48 86.48 -10.69C85.88 -10.9 85.45 -11.31 85.22 -11.92C84.98 -12.53 84.86 -13.33 84.86 -14.33L84.86 -57.97L73.77 -57.97Z M122.32 0L134.2 0L138.4 -12.83L157.4 -12.83L161.52 0L173.32 0L154.47 -57.97L141.88 -57.97ZM141.33 -22.65L148.3 -43.4L154.79 -22.65Z"/></g></g></svg>