<svg xmlns="http://www.w3.org/2000/svg" version="1.1" xlink="http://www.w3.org/1999/xlink" xmlns:svgjs="http://svgjs.com/svgjs" width="300" height="44.13737045315992"><defs id="SvgjsDefs5260"/><g id="SvgjsG5261" transform="scale(0.8813803550645657)" opacity="1"><g id="SvgjsG5262" class="text" transform="translate(169.98, 49.25) scale(1)" stroke="#f2b749" stroke-width="2px" light-content="false" fill="#4b83a6"><path d="M-152.34 -19.02L-136.85 0L-123.78 0L-145.01 -26.84L-124.95 -48.42L-137.4 -48.42L-158.84 -25.8L-158.84 -48.42L-169.98 -48.42L-169.98 0L-158.84 0L-158.84 -12.24Z M-103.75 -2.42C-99.72 -0.25 -95.19 0.83 -90.16 0.83C-85.13 0.83 -80.62 -0.25 -76.6 -2.42C-72.59 -4.59 -69.43 -7.57 -67.13 -11.38C-64.82 -15.18 -63.67 -19.46 -63.67 -24.21C-63.67 -28.96 -64.82 -33.24 -67.13 -37.04C-69.43 -40.84 -72.59 -43.83 -76.6 -46C-80.62 -48.16 -85.13 -49.25 -90.16 -49.25C-95.19 -49.25 -99.72 -48.16 -103.75 -46C-107.79 -43.83 -110.95 -40.84 -113.23 -37.04C-115.51 -33.24 -116.65 -28.96 -116.65 -24.21C-116.65 -19.46 -115.51 -15.18 -113.23 -11.38C-110.95 -7.57 -107.79 -4.59 -103.75 -2.42ZM-82.41 -10.69C-84.72 -9.37 -87.3 -8.72 -90.16 -8.72C-93.02 -8.72 -95.6 -9.37 -97.91 -10.69C-100.21 -12 -102.02 -13.83 -103.34 -16.19C-104.65 -18.54 -105.31 -21.21 -105.31 -24.21C-105.31 -27.21 -104.65 -29.88 -103.34 -32.23C-102.02 -34.58 -100.21 -36.42 -97.91 -37.73C-95.6 -39.05 -93.02 -39.7 -90.16 -39.7C-87.3 -39.7 -84.72 -39.05 -82.41 -37.73C-80.11 -36.42 -78.3 -34.58 -76.98 -32.23C-75.67 -29.88 -75.01 -27.21 -75.01 -24.21C-75.01 -21.21 -75.67 -18.54 -76.98 -16.19C-78.3 -13.83 -80.11 -12 -82.41 -10.69Z M-48.31 -48.42L-48.31 0L-26.32 0C-21.06 0 -16.42 -1 -12.38 -3.01C-8.35 -5.01 -5.21 -7.84 -2.97 -11.48C-0.74 -15.12 0.38 -19.37 0.38 -24.21C0.38 -29.05 -0.74 -33.29 -2.97 -36.94C-5.21 -40.58 -8.35 -43.4 -12.38 -45.41C-16.42 -47.41 -21.06 -48.42 -26.32 -48.42ZM-26.87 -9.2L-37.11 -9.2L-37.11 -39.22L-26.87 -39.22C-22.03 -39.22 -18.17 -37.87 -15.29 -35.17C-12.4 -32.47 -10.96 -28.82 -10.96 -24.21C-10.96 -19.6 -12.4 -15.94 -15.29 -13.25C-18.17 -10.55 -22.03 -9.2 -26.87 -9.2Z M49.21 -46.62C45.89 -48.37 42 -49.25 37.52 -49.25C33.05 -49.25 29.15 -48.37 25.83 -46.62C22.51 -44.87 19.93 -42.28 18.09 -38.87C16.24 -35.46 15.32 -31.33 15.32 -26.49L15.32 0L26.39 0L26.39 -11.62L48.52 -11.62L48.52 0L59.73 0L59.73 -26.49C59.73 -31.33 58.8 -35.46 56.96 -38.87C55.12 -42.28 52.53 -44.87 49.21 -46.62ZM48.52 -20.61L26.39 -20.61L26.39 -27.53C26.39 -31.54 27.37 -34.57 29.33 -36.62C31.29 -38.68 34 -39.7 37.45 -39.7C40.87 -39.7 43.56 -38.68 45.55 -36.62C47.53 -34.57 48.52 -31.54 48.52 -27.53Z M77.71 -48.42L77.71 0L113.19 0L113.19 -9.13L88.92 -9.13L88.92 -48.42Z M159.88 -46.62C156.56 -48.37 152.67 -49.25 148.19 -49.25C143.72 -49.25 139.82 -48.37 136.5 -46.62C133.18 -44.87 130.6 -42.28 128.76 -38.87C126.91 -35.46 125.99 -31.33 125.99 -26.49L125.99 0L137.06 0L137.06 -11.62L159.19 -11.62L159.19 0L170.4 0L170.4 -26.49C170.4 -31.33 169.47 -35.46 167.63 -38.87C165.78 -42.28 163.2 -44.87 159.88 -46.62ZM159.19 -20.61L137.06 -20.61L137.06 -27.53C137.06 -31.54 138.04 -34.57 140 -36.62C141.96 -38.68 144.66 -39.7 148.12 -39.7C151.54 -39.7 154.23 -38.68 156.22 -36.62C158.2 -34.57 159.19 -31.54 159.19 -27.53Z"/></g></g></svg>