<svg width="33" height="32" viewBox="0 0 33 32" fill="none" xmlns="http://www.w3.org/2000/svg">
<path fill-rule="evenodd" clip-rule="evenodd" d="M15.5398 1.66666L15.4151 1.66664C14.23 1.66644 13.4662 1.6663 12.7359 1.84165C12.0896 1.99679 11.4718 2.25269 10.9052 2.59994C10.2648 2.99239 9.72479 3.53255 8.88692 4.37071L8.88691 4.37072L8.79874 4.45891L7.65198 5.60567C7.61293 5.64472 7.55997 5.66666 7.50475 5.66666C4.28334 5.66666 1.67187 8.27813 1.67187 11.4995L1.67187 19.4667L1.67187 19.5107L1.67187 19.5107C1.67187 20.9669 1.67186 22.1209 1.74786 23.051C1.82557 24.0022 1.98772 24.807 2.36217 25.5419C2.96936 26.7336 3.93824 27.7025 5.12993 28.3097C5.86483 28.6841 6.66967 28.8463 7.62085 28.924C8.55101 29 9.70499 29 11.1612 29L11.2052 29L20.8052 29L20.8492 29C22.3054 29 23.4594 29 24.3896 28.924C25.3407 28.8463 26.1456 28.6841 26.8805 28.3097C28.0722 27.7025 29.041 26.7336 29.6482 25.5419C30.0227 24.807 30.1848 24.0022 30.2626 23.051C30.3386 22.1209 30.3385 20.9669 30.3385 19.5107L30.3385 19.4667L30.3385 11.4995C30.3385 8.27812 27.7271 5.66666 24.5057 5.66666C24.4504 5.66666 24.3975 5.64472 24.3584 5.60567L23.2117 4.45891L23.1235 4.37072C22.2856 3.53255 21.7456 2.99239 21.1052 2.59994C20.5386 2.25269 19.9208 1.99679 19.2746 1.84165C18.5442 1.6663 17.7804 1.66644 16.5953 1.66664L16.4706 1.66666L15.5398 1.66666ZM13.2027 3.78639C13.6747 3.67308 14.1877 3.66666 15.5398 3.66666L16.4706 3.66666C17.8227 3.66666 18.3357 3.67308 18.8077 3.78639C19.2498 3.89254 19.6725 4.06763 20.0602 4.30522C20.4741 4.55881 20.8414 4.91705 21.7975 5.87312L22.9442 7.01989C23.3583 7.43401 23.92 7.66666 24.5057 7.66666C26.6225 7.66666 28.3385 9.38269 28.3385 11.4995L28.3385 19.4667C28.3385 20.9766 28.3378 22.049 28.2692 22.8881C28.2016 23.7157 28.0731 24.228 27.8662 24.634C27.4508 25.4493 26.7879 26.1122 25.9725 26.5277C25.5665 26.7345 25.0542 26.863 24.2267 26.9306C23.3875 26.9992 22.3152 27 20.8052 27L11.2052 27C9.69523 27 8.62289 26.9992 7.78371 26.9306C6.95621 26.863 6.44388 26.7345 6.03791 26.5277C5.22255 26.1122 4.55963 25.4493 4.14418 24.6339C3.93733 24.228 3.80882 23.7157 3.74121 22.8881C3.67265 22.049 3.67187 20.9766 3.67187 19.4667L3.67187 11.4995C3.67187 9.3827 5.38791 7.66666 7.50475 7.66666C8.0904 7.66666 8.65207 7.43401 9.06619 7.01988L10.213 5.87312C11.169 4.91705 11.5364 4.55881 11.9502 4.30522C12.3379 4.06763 12.7606 3.89254 13.2027 3.78639ZM11.6719 16C11.6719 13.6068 13.612 11.6667 16.0052 11.6667C18.3984 11.6667 20.3385 13.6068 20.3385 16C20.3385 18.3932 18.3984 20.3333 16.0052 20.3333C13.612 20.3333 11.6719 18.3932 11.6719 16ZM16.0052 9.66666C12.5074 9.66666 9.67187 12.5022 9.67187 16C9.67187 19.4978 12.5074 22.3333 16.0052 22.3333C19.503 22.3333 22.3385 19.4978 22.3385 16C22.3385 12.5022 19.503 9.66666 16.0052 9.66666Z" fill="url(#paint0_linear_1025_26726)"/>
<defs>
<linearGradient id="paint0_linear_1025_26726" x1="16.0052" y1="1.66663" x2="16.0052" y2="29" gradientUnits="userSpaceOnUse">
<stop stop-color="#8B62FF"/>
<stop offset="1" stop-color="#7593FF"/>
</linearGradient>
</defs>
</svg>
