<svg width="16" fill="#fff" height="15" xmlns="http://www.w3.org/2000/svg"><path fill-rule="evenodd" clip-rule="evenodd" d="M8.38 1.887a.937.937 0 0 0-.762 0c-.081.036-.205.13-.415.426-.207.293-.448.708-.795 1.306l-4.087 7.06c-.348.6-.588 1.018-.74 1.345-.152.33-.172.485-.163.573a.938.938 0 0 0 .381.661c.072.052.216.113.578.146.359.033.84.034 1.534.034h8.175c.694 0 1.175-.001 1.534-.034.362-.033.507-.094.578-.146a.938.938 0 0 0 .381-.66c.01-.09-.01-.244-.163-.574-.151-.327-.392-.744-.74-1.345L9.59 3.62c-.347-.598-.587-1.013-.795-1.306-.21-.295-.333-.39-.414-.426ZM7.16.86a2.062 2.062 0 0 1 1.677 0c.363.162.632.46.875.804.241.34.507.8.836 1.368l.014.025 4.088 7.06.014.024c.33.57.597 1.032.773 1.412.177.382.303.765.261 1.162a2.063 2.063 0 0 1-.838 1.454c-.323.235-.717.318-1.137.356-.416.039-.95.039-1.608.039H3.882c-.659 0-1.192 0-1.609-.039-.42-.038-.814-.121-1.137-.356A2.063 2.063 0 0 1 .3 12.714c-.041-.397.084-.78.261-1.162.176-.38.443-.842.773-1.412l.014-.024 4.088-7.06.014-.025c.329-.568.595-1.028.836-1.368.243-.343.512-.642.876-.804ZM8 5.187c.31 0 .562.252.562.563v3a.563.563 0 0 1-1.125 0v-3c0-.31.252-.563.563-.563Zm0 6.563a.75.75 0 1 0 0-1.5.75.75 0 0 0 0 1.5Z" /></svg>