<svg viewBox="0 0 20 20" fill="#000" xmlns="http://www.w3.org/2000/svg">
<path fill-rule="evenodd" clip-rule="evenodd" d="M4.1674 14.6551C3.84198 14.9806 3.84203 15.5081 4.1675 15.8336C4.49297 16.159 5.0206 16.159 5.34601 15.8335L10.0004 11.1783L14.6551 15.8331C14.9805 16.1585 15.5082 16.1585 15.8336 15.8331C16.159 15.5076 16.159 14.98 15.8336 14.6546L11.1788 9.99973L15.8333 5.34441C16.1586 5.01895 16.1586 4.49131 15.8331 4.16591C15.5077 3.84049 14.98 3.84054 14.6546 4.16601L10.0002 8.82123L5.34544 4.16641C5.02001 3.84097 4.49237 3.84097 4.16693 4.16641C3.84149 4.49185 3.84149 5.01948 4.16693 5.34492L8.82187 9.99981L4.1674 14.6551Z" />
</svg>
