<svg width="24" height="24" fill="white" viewBox="0 0 24 24" xmlns="http://www.w3.org/2000/svg">
<path fill-rule="evenodd" clip-rule="evenodd" d="M8.40001 3.1001H8.36106H8.36104C7.27397 3.10009 6.4033 3.10008 5.69953 3.15758C4.97686 3.21663 4.3513 3.34076 3.77545 3.63417C2.85346 4.10395 2.10385 4.85355 1.63407 5.77554C1.34067 6.35139 1.21654 6.97695 1.15749 7.69962C1.09999 8.40339 1.1 9.27406 1.10001 10.3611V10.3611V10.4001V13.6001V13.639V13.6391C1.1 14.7261 1.09999 15.5968 1.15749 16.3006C1.21654 17.0232 1.34067 17.6488 1.63407 18.2247C2.10385 19.1466 2.85346 19.8962 3.77545 20.366C4.3513 20.6594 4.97686 20.7836 5.69953 20.8426C6.40328 20.9001 7.27393 20.9001 8.36097 20.9001H8.36105H8.40001H15.6H15.639H15.639C16.7261 20.9001 17.5967 20.9001 18.3005 20.8426C19.0232 20.7836 19.6487 20.6594 20.2246 20.366C21.1466 19.8962 21.8962 19.1466 22.3659 18.2247C22.6593 17.6488 22.7835 17.0232 22.8425 16.3006C22.9 15.5968 22.9 14.7262 22.9 13.6391V13.6391V13.6001V10.4001V10.3611V10.3611C22.9 9.27402 22.9 8.40337 22.8425 7.69962C22.7835 6.97695 22.6593 6.35139 22.3659 5.77554C21.8962 4.85355 21.1466 4.10395 20.2246 3.63417C19.6487 3.34076 19.0232 3.21663 18.3005 3.15758C17.5967 3.10008 16.726 3.10009 15.639 3.1001H15.639H15.6H8.40001ZM4.59264 5.23798C4.87244 5.09541 5.23475 5.00156 5.8461 4.95161C6.46796 4.9008 7.26505 4.9001 8.40001 4.9001H15.6C16.735 4.9001 17.5321 4.9008 18.1539 4.95161C18.7653 5.00156 19.1276 5.09541 19.4074 5.23798C19.9907 5.53519 20.4649 6.00943 20.7621 6.59273C20.9047 6.87253 20.9985 7.23484 21.0485 7.84619C21.0993 8.46805 21.1 9.26514 21.1 10.4001V13.6001C21.1 14.7351 21.0993 15.5321 21.0485 16.154C20.9985 16.7654 20.9047 17.1277 20.7621 17.4075C20.4649 17.9908 19.9907 18.465 19.4074 18.7622C19.1276 18.9048 18.7653 18.9986 18.1539 19.0486C17.5321 19.0994 16.735 19.1001 15.6 19.1001H8.40001C7.26505 19.1001 6.46796 19.0994 5.8461 19.0486C5.23475 18.9986 4.87244 18.9048 4.59264 18.7622C4.00933 18.465 3.53509 17.9908 3.23789 17.4075C3.09532 17.1277 3.00146 16.7654 2.95151 16.154C2.90071 15.5321 2.90001 14.7351 2.90001 13.6001V10.4001C2.90001 9.26514 2.90071 8.46805 2.95151 7.84619C3.00146 7.23484 3.09532 6.87253 3.23789 6.59273C3.53509 6.00943 4.00933 5.53519 4.59264 5.23798ZM6.49924 7.25125C6.08566 6.97554 5.52688 7.08729 5.25116 7.50087C4.97544 7.91444 5.0872 8.47323 5.50078 8.74894L11.5008 12.7489C11.8031 12.9505 12.1969 12.9505 12.4992 12.7489L18.4992 8.74894C18.9128 8.47323 19.0246 7.91444 18.7489 7.50087C18.4731 7.08729 17.9144 6.97554 17.5008 7.25125L12 10.9184L6.49924 7.25125Z" />
</svg>
