<svg fill="#024013" xmlns="http://www.w3.org/2000/svg" viewBox="0 0 18 18">
  <g clip-path="url(#a)">
    <path d="M16.8813 6.90125 9.40149 1.53794c-.23877-.16682-.56108-.16869-.80256 0L1.11921 6.90125c-.754851.54123-1.574796-.59986-.818821-1.14193L7.78303.393969c.00165-.001194.0033-.002354.00499-.003548.72221-.508456 1.69381-.514428 2.42448 0 .0017.001159.0033.002354.005.003548l7.4826 5.365351c.7575.54316-.0705 1.67853-.8188 1.14193Z"/>
    <path d="M14.4803 17.9931h-4.0749c-.3881 0-.70262-.3145-.70262-.7025v-2.8104c0-.3874-.31517-.7025-.70257-.7025-.38741 0-.70258.3151-.70258.7025v2.8104c0 .388-.31455.7025-.70258.7025H3.52009c-1.16221 0-2.10774-.9455-2.10774-2.1077V9.58351c0-.68347.33296-1.32647.89084-1.72096l5.47797-3.9544c.00225-.00165.00453-.00327.00685-.00488.72222-.50832 1.69364-.51432 2.42439 0 .0023.00161.0046.00323.0069.00488l5.478 3.95443c.5578.3945.8908 1.0375.8908 1.72097v6.30185c0 1.1622-.9456 2.1077-2.1078 2.1077Zm-3.3724-1.4051h3.3724c.3874 0 .7026-.3152.7026-.7026V9.58351c0-.22834-.1115-.44311-.2982-.57453-.0023-.00162-.0046-.00323-.0069-.00488L9.40085 5.0504c-.23891-.16644-.56048-.16774-.80129 0L3.12257 9.0041c-.00225.00161-.00453.00326-.00685.00488-.18671.13142-.29821.34619-.29821.57453v6.30189c0 .3874.31518.7026.70258.7026h3.37238v-2.1078c0-1.1622.94553-2.1077 2.10774-2.1077 1.16219 0 2.10769.9455 2.10769 2.1077v2.1078Z"/>
  </g>
  <defs>
    <clipPath id="a">
      <path d="M0 0h18v18H0z"/>
    </clipPath>
  </defs>
</svg>
